<svg width="32" xmlns="http://www.w3.org/2000/svg" height="32" id="screenshot-6c7a2c7e-5ef6-80a5-8008-ae7b521afc88" viewBox="-0 -0 32 32" xmlns:xlink="http://www.w3.org/1999/xlink" fill="none" version="1.1"><g id="shape-6c7a2c7e-5ef6-80a5-8008-ae7b521afc88" xml:space="preserve" rx="0" ry="0" style="fill: rgb(0, 0, 0);"><g id="shape-6c7a2c7e-5ef6-80a5-8008-ae7b521afc89" style="display: none;"><g class="fills" id="fills-6c7a2c7e-5ef6-80a5-8008-ae7b521afc89"><rect width="32.00000000000023" height="32" x="-2.2737367544323206e-13" transform="matrix(0.000000, 1.000000, 1.000000, 0.000000, -0.000000, -0.000000)" style="fill: rgb(177, 178, 181); fill-opacity: 1;" ry="0" fill="none" rx="0" y="-6.821210263296962e-13"/></g></g><g id="shape-6c7a2c7e-5ef6-80a5-8008-ae7b521afc8a"><g class="fills" id="fills-6c7a2c7e-5ef6-80a5-8008-ae7b521afc8a"><path d="M5.65216064453125,15.607147216796875L11.434814453125,21.357147216796875L18.86956787109375,13.96429443359375L13.08697509765625,8.21429443359375L5.65216064453125,15.607147216796875M5.65216064453125,15.607147216796875C5.65216064453125,15.607147216796875,1.521728515625,20.535736083984375,4,23C6.478271484375,25.46429443359375,11.434814453125,21.357147216796875,11.434814453125,21.357147216796875M3.478271484375,24.428558349609375C2.65216064453125,24.428558349609375,1,27.71429443359375,1,29.357147216796875C1,30.452362060546875,2.65216064453125,31,3.478271484375,31C4.3043212890625,31,5.95654296875,30.452392578125,5.95654296875,29.357147216796875C5.95654296875,27.71429443359375,4.3043212890625,24.428558349609375,3.478271484375,24.428558349609375" style="fill: rgb(255, 255, 254); fill-opacity: 1;"/></g><g id="strokes-e8d8b53f-d823-80c2-8008-aec42b1c2a1e-6c7a2c7e-5ef6-80a5-8008-ae7b521afc8a" class="strokes"><g class="stroke-shape"><path d="M5.65216064453125,15.607147216796875L11.434814453125,21.357147216796875L18.86956787109375,13.96429443359375L13.08697509765625,8.21429443359375L5.65216064453125,15.607147216796875M5.65216064453125,15.607147216796875C5.65216064453125,15.607147216796875,1.521728515625,20.535736083984375,4,23C6.478271484375,25.46429443359375,11.434814453125,21.357147216796875,11.434814453125,21.357147216796875M3.478271484375,24.428558349609375C2.65216064453125,24.428558349609375,1,27.71429443359375,1,29.357147216796875C1,30.452362060546875,2.65216064453125,31,3.478271484375,31C4.3043212890625,31,5.95654296875,30.452392578125,5.95654296875,29.357147216796875C5.95654296875,27.71429443359375,4.3043212890625,24.428558349609375,3.478271484375,24.428558349609375" style="fill: none; stroke-width: 1; stroke: rgb(0, 0, 0); stroke-opacity: 1;"/></g></g></g></g></svg>