<svg width="32" xmlns="http://www.w3.org/2000/svg" height="32" id="screenshot-6c7a2c7e-5ef6-80a5-8008-ae782ded274e" viewBox="0 0 32 32" xmlns:xlink="http://www.w3.org/1999/xlink" fill="none" version="1.1"><g id="shape-6c7a2c7e-5ef6-80a5-8008-ae782ded274e" xml:space="preserve" rx="0" ry="0" style="fill: rgb(0, 0, 0);"><g id="shape-6c7a2c7e-5ef6-80a5-8008-ae782ded274f" style="display: none;"><g class="fills" id="fills-6c7a2c7e-5ef6-80a5-8008-ae782ded274f"><rect width="32.00000000000023" height="32" x="0" transform="matrix(0.000000, 1.000000, 1.000000, 0.000000, -0.000000, -0.000000)" style="fill: rgb(177, 178, 181); fill-opacity: 1;" ry="0" fill="none" rx="0" y="0"/></g></g><g id="shape-6c7a2c7e-5ef6-80a5-8008-ae782ded2750"><g class="fills" id="fills-6c7a2c7e-5ef6-80a5-8008-ae782ded2750"><path d="M1.3671875,26.567291259765625C3.118408203125,28.2587890625,5.95654296875,31,5.95654296875,31C5.95654296875,31,8.434814453125,31,8.434814453125,31L11.7391357421875,27.655029296875L20,19.601654052734375L13.48089599609375,13C13.48089599609375,13,2.1932373046875,24.124786376953125,1.3671875,24.93896484375C0.54107666015625,25.753143310546875,1.3671875,26.567291259765625,1.3671875,26.567291259765625M5.13043212890625,21.141693115234375L11.7391357421875,27.655029296875" style="fill: rgb(255, 255, 254); fill-opacity: 1;"/></g><g id="strokes-e8d8b53f-d823-80c2-8008-aec42afb6d13-6c7a2c7e-5ef6-80a5-8008-ae782ded2750" class="strokes"><g class="stroke-shape"><path d="M1.3671875,26.567291259765625C3.118408203125,28.2587890625,5.95654296875,31,5.95654296875,31C5.95654296875,31,8.434814453125,31,8.434814453125,31L11.7391357421875,27.655029296875L20,19.601654052734375L13.48089599609375,13C13.48089599609375,13,2.1932373046875,24.124786376953125,1.3671875,24.93896484375C0.54107666015625,25.753143310546875,1.3671875,26.567291259765625,1.3671875,26.567291259765625M5.13043212890625,21.141693115234375L11.7391357421875,27.655029296875" style="fill: none; stroke-width: 1; stroke: rgb(0, 0, 0); stroke-opacity: 1;"/></g></g></g></g></svg>